<mxfile host="app.diagrams.net" modified="2022-05-18T05:06:39.458Z" agent="5.0 (Macintosh)" etag="vIuL2CoL7g6fmk3cLiSV" version="17.4.3" type="github">
  <diagram id="Or_pD1mzWfAnwg1juJdv" name="Page-1">
    <mxGraphModel dx="897" dy="561" grid="1" gridSize="10" guides="1" tooltips="1" connect="1" arrows="1" fold="1" page="1" pageScale="1" pageWidth="1169" pageHeight="827" math="0" shadow="0">
      <root>
        <mxCell id="0" />
        <mxCell id="1" parent="0" />
        <mxCell id="0rFzeYIw-L_O-WRSm_Ry-1" value="CN DC" style="ellipse;whiteSpace=wrap;html=1;" parent="1" vertex="1">
          <mxGeometry x="60" y="220" width="170" height="100" as="geometry" />
        </mxCell>
        <mxCell id="0rFzeYIw-L_O-WRSm_Ry-2" value="India / SG" style="ellipse;whiteSpace=wrap;html=1;" parent="1" vertex="1">
          <mxGeometry x="550" y="215" width="120" height="80" as="geometry" />
        </mxCell>
        <mxCell id="0rFzeYIw-L_O-WRSm_Ry-3" value="sites" style="ellipse;whiteSpace=wrap;html=1;" parent="1" vertex="1">
          <mxGeometry x="250" y="510" width="120" height="80" as="geometry" />
        </mxCell>
        <mxCell id="0rFzeYIw-L_O-WRSm_Ry-4" value="&lt;div&gt;AT&amp;amp;T &lt;br&gt;&lt;/div&gt;&lt;div&gt;AGN&lt;/div&gt;" style="ellipse;shape=cloud;whiteSpace=wrap;html=1;" parent="1" vertex="1">
          <mxGeometry x="320" y="230" width="120" height="80" as="geometry" />
        </mxCell>
        <mxCell id="0rFzeYIw-L_O-WRSm_Ry-5" value="" style="endArrow=classic;startArrow=classic;html=1;rounded=0;exitX=0.5;exitY=1;exitDx=0;exitDy=0;entryX=0.4;entryY=0.1;entryDx=0;entryDy=0;entryPerimeter=0;" parent="1" source="0rFzeYIw-L_O-WRSm_Ry-1" target="N0NvJ6Z7XtJCUqUOk7vA-5" edge="1">
          <mxGeometry width="50" height="50" relative="1" as="geometry">
            <mxPoint x="270" y="300" as="sourcePoint" />
            <mxPoint x="320" y="250" as="targetPoint" />
          </mxGeometry>
        </mxCell>
        <mxCell id="0rFzeYIw-L_O-WRSm_Ry-6" value="" style="endArrow=classic;startArrow=classic;html=1;rounded=0;entryX=0;entryY=0.7;entryDx=0;entryDy=0;entryPerimeter=0;exitX=0.875;exitY=0.5;exitDx=0;exitDy=0;exitPerimeter=0;" parent="1" source="0rFzeYIw-L_O-WRSm_Ry-4" target="0rFzeYIw-L_O-WRSm_Ry-2" edge="1">
          <mxGeometry width="50" height="50" relative="1" as="geometry">
            <mxPoint x="550" y="320" as="sourcePoint" />
            <mxPoint x="600" y="270" as="targetPoint" />
          </mxGeometry>
        </mxCell>
        <mxCell id="0rFzeYIw-L_O-WRSm_Ry-7" value="" style="endArrow=classic;startArrow=classic;html=1;rounded=0;exitX=0.5;exitY=0;exitDx=0;exitDy=0;entryX=0.633;entryY=0.963;entryDx=0;entryDy=0;entryPerimeter=0;" parent="1" source="0rFzeYIw-L_O-WRSm_Ry-3" target="N0NvJ6Z7XtJCUqUOk7vA-5" edge="1">
          <mxGeometry width="50" height="50" relative="1" as="geometry">
            <mxPoint x="410" y="410" as="sourcePoint" />
            <mxPoint x="460" y="360" as="targetPoint" />
          </mxGeometry>
        </mxCell>
        <mxCell id="N0NvJ6Z7XtJCUqUOk7vA-1" value="DNS Server" style="rounded=0;whiteSpace=wrap;html=1;" vertex="1" parent="1">
          <mxGeometry x="100" y="280" width="75" height="20" as="geometry" />
        </mxCell>
        <mxCell id="N0NvJ6Z7XtJCUqUOk7vA-3" value="" style="endArrow=none;html=1;rounded=0;exitX=1;exitY=0;exitDx=0;exitDy=0;" edge="1" parent="1" source="0rFzeYIw-L_O-WRSm_Ry-1" target="N0NvJ6Z7XtJCUqUOk7vA-4">
          <mxGeometry width="50" height="50" relative="1" as="geometry">
            <mxPoint x="450" y="350" as="sourcePoint" />
            <mxPoint x="500" y="300" as="targetPoint" />
          </mxGeometry>
        </mxCell>
        <mxCell id="N0NvJ6Z7XtJCUqUOk7vA-4" value="Internet" style="ellipse;shape=cloud;whiteSpace=wrap;html=1;" vertex="1" parent="1">
          <mxGeometry x="290" y="60" width="220" height="80" as="geometry" />
        </mxCell>
        <mxCell id="N0NvJ6Z7XtJCUqUOk7vA-5" value="MPLS" style="ellipse;shape=cloud;whiteSpace=wrap;html=1;" vertex="1" parent="1">
          <mxGeometry x="90" y="390" width="120" height="80" as="geometry" />
        </mxCell>
        <mxCell id="N0NvJ6Z7XtJCUqUOk7vA-6" value="" style="curved=1;endArrow=classic;html=1;rounded=0;entryX=0.25;entryY=1;entryDx=0;entryDy=0;exitX=0;exitY=0.5;exitDx=0;exitDy=0;dashed=1;" edge="1" parent="1" source="0rFzeYIw-L_O-WRSm_Ry-3" target="N0NvJ6Z7XtJCUqUOk7vA-1">
          <mxGeometry width="50" height="50" relative="1" as="geometry">
            <mxPoint x="590" y="450" as="sourcePoint" />
            <mxPoint x="500" y="330" as="targetPoint" />
            <Array as="points">
              <mxPoint x="200" y="510" />
              <mxPoint x="90" y="490" />
            </Array>
          </mxGeometry>
        </mxCell>
        <mxCell id="N0NvJ6Z7XtJCUqUOk7vA-10" value="Domestic DNS Query" style="edgeLabel;html=1;align=center;verticalAlign=middle;resizable=0;points=[];" vertex="1" connectable="0" parent="N0NvJ6Z7XtJCUqUOk7vA-6">
          <mxGeometry x="-0.3482" y="-5" relative="1" as="geometry">
            <mxPoint x="-30" y="8" as="offset" />
          </mxGeometry>
        </mxCell>
        <mxCell id="N0NvJ6Z7XtJCUqUOk7vA-7" value="" style="endArrow=classic;startArrow=classic;html=1;rounded=0;exitX=1;exitY=0.5;exitDx=0;exitDy=0;" edge="1" parent="1" source="0rFzeYIw-L_O-WRSm_Ry-1">
          <mxGeometry width="50" height="50" relative="1" as="geometry">
            <mxPoint x="210.00000000000006" y="274.52" as="sourcePoint" />
            <mxPoint x="330" y="270" as="targetPoint" />
          </mxGeometry>
        </mxCell>
        <mxCell id="N0NvJ6Z7XtJCUqUOk7vA-8" value="DNS Server" style="rounded=0;whiteSpace=wrap;html=1;" vertex="1" parent="1">
          <mxGeometry x="580" y="260" width="75" height="20" as="geometry" />
        </mxCell>
        <mxCell id="N0NvJ6Z7XtJCUqUOk7vA-9" value="" style="curved=1;endArrow=classic;html=1;rounded=0;exitX=0.75;exitY=0.025;exitDx=0;exitDy=0;exitPerimeter=0;entryX=0.5;entryY=1;entryDx=0;entryDy=0;fillColor=#0050ef;strokeColor=#001DBC;dashed=1;" edge="1" parent="1" source="0rFzeYIw-L_O-WRSm_Ry-3" target="N0NvJ6Z7XtJCUqUOk7vA-8">
          <mxGeometry width="50" height="50" relative="1" as="geometry">
            <mxPoint x="450" y="380" as="sourcePoint" />
            <mxPoint x="500" y="330" as="targetPoint" />
            <Array as="points">
              <mxPoint x="160" y="390" />
              <mxPoint x="160" y="250" />
              <mxPoint x="380" y="300" />
              <mxPoint x="480" y="280" />
              <mxPoint x="600" y="340" />
            </Array>
          </mxGeometry>
        </mxCell>
        <mxCell id="N0NvJ6Z7XtJCUqUOk7vA-11" value="&lt;font color=&quot;#FF3333&quot;&gt;Google DNS Query&lt;/font&gt;" style="edgeLabel;html=1;align=center;verticalAlign=middle;resizable=0;points=[];fontSize=14;fontColor=#FFB570;" vertex="1" connectable="0" parent="N0NvJ6Z7XtJCUqUOk7vA-9">
          <mxGeometry x="0.28" y="10" relative="1" as="geometry">
            <mxPoint x="-153" y="100" as="offset" />
          </mxGeometry>
        </mxCell>
      </root>
    </mxGraphModel>
  </diagram>
</mxfile>
